<svg xmlns:rdf="http://www.w3.org/1999/02/22-rdf-syntax-ns#" xmlns="http://www.w3.org/2000/svg" height="154.13" width="154.16" version="1.1" xmlns:cc="http://creativecommons.org/ns#" xmlns:dc="http://purl.org/dc/elements/1.1/" viewBox="0 0 154.16116 154.12941">
<g transform="translate(-9.8007 -10.75)">
<path d="m31.774 163.1c0-0.95869 1.4725-3.5954 3.2722-5.8594s3.2762-4.4242 3.2812-4.8004c0.005-0.37625-6.2762-5.1283-13.958-10.56-7.681-5.43-14.21-10.51-14.508-11.28-1.0554-2.7504 11.904-15.9 22.145-22.47 1.1454-0.73484 1.3561-2.0843 0.97457-6.2422l-0.48673-5.3048-5.7504-2.0597c-7.3303-2.6256-13.98-6.8149-15.589-9.8208-4.4761-8.3636 2.3706-15.475 19.714-20.477 5.9086-1.704 8.0247-2.7352 8.2818-4.0358 1.7022-8.6098 7.4929-26.671 10.767-33.584 7.5194-15.874 14.56-18.976 28.609-12.606 7.3657 3.3398 9.4934 3.3741 16.06 0.25894 10.01-4.7488 15.685-4.6812 21.553 0.25676 4.188 3.524 10.668 17.651 14.558 31.739 4.6989 17.017 3.9772 15.887 11.322 17.732 18.28 4.5917 26.424 13.828 19.476 22.086-2.6893 3.196-8.4377 6.3862-15.917 8.8338l-4.7896 1.5673-0.0776 5.4754-0.0776 5.4754 5.0705 3.4922c6.3394 4.3661 18.258 16.806 18.258 19.057 0 1.1064-4.9618 5.168-14.494 11.865-8.465 5.9469-14.245 10.608-13.894 11.206 0.33003 0.56256 2.0479 2.8111 3.8176 4.9967 3.2021 3.9549 3.5109 6.8074 0.73705 6.8074-1.7522 0-10.853-11.138-10.853-13.282 0-0.99341 5.2636-5.221 14.024-11.264 7.713-5.3203 14.041-10.129 14.062-10.686 0.0483-1.2579-10.477-11.716-15.09-14.994l-3.4099-2.423-4.4788 3.4187c-3.5784 2.7315-5.0929 4.8313-7.5336 10.446-7.6324 17.557-17.181 30.221-26.806 35.553-4.4309 2.4545-5.8752 2.7612-12.956 2.7512-6.5745-0.009-8.7069-0.40191-12.188-2.244-10.33-5.4672-18.03-14.96-26.563-32.751-3.5037-7.3047-5.9543-11.094-8.8617-13.701-3.7378-3.352-4.1827-3.5162-6.3656-2.3479-3.1398 1.6804-13.002 10.66-15.389 14.012l-1.9108 2.6834 14.545 10.11c7.9997 5.5604 14.545 10.67 14.545 11.355 0 0.68466-2.1851 3.9716-4.8557 7.3043-4.8265 6.023-8.2693 7.82-8.2693 4.3164zm63.349-4.5038c8.9777-3.03 18.471-15.122 27.547-35.088 3.2451-7.1384 4.6208-9.1923 6.6768-9.9684 3.165-1.1947 6.4897-7.312 6.4897-11.941 0-3.7536 0.24649-3.6867-8.3569-2.2659l-6.3743 1.0527-1.0781 4.6707c-1.9625 8.5019-7.1077 12.911-15.066 12.911-8.0909 0-14.114-5.098-14.122-11.953-0.003-2.9177-0.15902-3.0469-3.6711-3.0469-3.5683 0-3.6853 0.10495-4.3226 3.8771-0.40715 2.4099-1.7907 5.1164-3.6562 7.1519-2.4941 2.7215-3.8143 3.3529-7.814 3.7373-6.1108 0.58718-8.7233-0.0855-12.423-3.1986-3.1649-2.6631-4.5837-5.3854-5.5212-10.594-0.55789-3.0994-0.83572-3.2972-6.1991-4.4122-8.6254-1.7932-9.8338-1.655-9.8338 1.1247 0 5.0262 5.1355 13.564 8.159 13.564 0.69829 0 2.3964 2.6367 3.7735 5.8594 13.656 31.957 28.425 44.38 45.791 38.519zm-19.881-47.259c1.8906-1.4872 2.4702-2.7749 2.4702-5.4887v-3.5456l-9.607-0.52938c-5.2838-0.29115-9.7811-0.35522-9.994-0.14237-0.21285 0.21285 0.12544 2.0974 0.75177 4.1879 2.0336 6.7874 10.947 9.7906 16.379 5.5182zm36.783-1.2444c2.2247-2.2247 3.1875-4.047 3.1875-6.0329v-2.8454l-8.6719 0.48514c-10.871 0.60815-11.022 0.66056-10.986 3.8168 0.0538 4.7039 3.7866 7.6888 9.6733 7.7353 2.8757 0.0227 4.2573-0.61945 6.7969-3.159zm4.7143-14.151c13.617-1.6859 27.257-5.0255 34.479-8.4422 12.515-5.9205 9.8658-12.22-7.5167-17.874l-7.8632-2.5579-2.2259 2.4018c-6 6.4742-19.266 9.9462-40.9 10.705-26.132 0.9165-44.278-2.7627-52.661-10.677l-2.5047-2.3648-6.3551 2.0531c-17.895 5.7813-21.149 12.14-9.2605 18.097 7.5401 3.7782 24.947 7.8006 40.781 9.4236 9.6708 0.99128 43.739 0.50928 54.027-0.76436zm-12.647-21.105c9.9207-1.1368 19.971-4.1179 23.917-7.0943 2.8582-2.1557 2.9216-2.3564 1.969-6.2355-0.54133-2.2045-1.11-4.1619-1.2636-4.3498-0.1537-0.18793-2.0944 0.53227-4.3128 1.6004-16.817 8.0976-56.778 8.3797-73.499 0.51872-2.6279-1.2354-5.0374-2.2462-5.3545-2.2462-0.89109 0-2.7103 7.5367-2.1633 8.9622 1.1578 3.0172 13.253 7.2357 25.204 8.7902 8.462 1.1007 26.135 1.1277 35.503 0.0542zm6.021-16.772c10.855-2.2404 16.349-4.9334 16.349-8.0139 0-2.5949-5.4901-19.174-7.8747-23.78-0.88352-1.7066-3.1082-4.7652-4.9437-6.7969-4.2148-4.6652-7.7148-4.8464-17.032-0.8815-8.329 3.5443-12.194 3.5442-19.687-0.00074-8.2716-3.9131-12.591-3.7995-16.586 0.4363-1.6848 1.7864-4.3269 5.8997-5.8713 9.1406-3.6958 7.7558-8.0027 21.077-7.3578 22.758 0.81911 2.1346 7.7042 5.1727 15.94 7.0336 10.892 2.4612 35.382 2.5156 47.064 0.10465z" fill="#dedede"/>
</g>
</svg>
